<svg xmlns="http://www.w3.org/2000/svg" width="51.069" height="51.069" viewBox="0 0 51.069 51.069">
  <g id="Icon_feather-arrow-left-circle" data-name="Icon feather-arrow-left-circle" transform="translate(-1.5 -1.5)">
    <path id="Path_2588" data-name="Path 2588" d="M27.034,52.569a25.541,25.541,0,0,1-9.94-49.061A25.541,25.541,0,0,1,36.974,50.561,25.376,25.376,0,0,1,27.034,52.569Zm0-48.069A22.534,22.534,0,1,0,49.569,27.034,22.56,22.56,0,0,0,27.034,4.5Z"/>
    <path id="Path_2589" data-name="Path 2589" d="M21.614,32.727a1.5,1.5,0,0,1-1.061-.439l-9.614-9.614a1.5,1.5,0,0,1,0-2.121l9.614-9.614a1.5,1.5,0,0,1,2.121,2.121l-8.553,8.553,8.553,8.553a1.5,1.5,0,0,1-1.061,2.561Z" transform="translate(5.421 5.421)"/>
    <path id="Path_2590" data-name="Path 2590" d="M31.227,19.5H12a1.5,1.5,0,0,1,0-3H31.227a1.5,1.5,0,0,1,0,3Z" transform="translate(5.421 9.034)"/>
  </g>
</svg>
