<svg xmlns="http://www.w3.org/2000/svg" width="57.762" height="57.762" viewBox="0 0 57.762 57.762"><g transform="translate(0 0)"><path d="M82.516,130.076a4.74,4.74,0,0,0-3.26,4.855A5.4,5.4,0,0,0,84,139.859a4.809,4.809,0,0,0,5.064-3.342,27.4,27.4,0,0,1,2.361,2.461,2.336,2.336,0,0,1-.294,3.034c-.965.973-1.938,1.938-2.911,2.906a2.86,2.86,0,0,0-.564.739,1.391,1.391,0,0,0,1.128,2.091c1.213.136,2.257.512,2.666,1.8a2.679,2.679,0,0,1-.777,2.824,2.613,2.613,0,0,1-2.878.76,2.521,2.521,0,0,1-1.668-2.317,1.529,1.529,0,0,0-2.772-1.041c-.987.979-1.968,1.965-2.955,2.944a2.34,2.34,0,0,1-3.554-.008c-1.03-1.019-2.036-2.063-3.088-3.058a1.451,1.451,0,0,0-2.53.619c-.065.245-.052.5-.1.75a2.45,2.45,0,0,1-2.025,2.205,2.837,2.837,0,0,1-2.848-1.246,2.519,2.519,0,0,1-.379-2.726,2.6,2.6,0,0,1,2.369-1.516,1.537,1.537,0,0,0,1.475-.959,1.625,1.625,0,0,0-.5-1.753c-.959-.979-1.938-1.938-2.906-2.908a2.319,2.319,0,0,1,.016-3.7l2.7-2.7a2.332,2.332,0,0,0,.741-1.164,1.458,1.458,0,0,0-1.5-1.72,2.616,2.616,0,0,1-2.543-2.077,3.047,3.047,0,0,1,2.279-3.32,2.517,2.517,0,0,1,3.075,2.044,6.774,6.774,0,0,0,.237,1.131,1.344,1.344,0,0,0,1.954.755,2.682,2.682,0,0,0,.7-.529c1.006-.987,2.014-1.973,3.034-2.949a2.322,2.322,0,0,1,3.432.035c.684.673,1.355,1.355,2.031,2.036C82.5,129.992,82.505,130.041,82.516,130.076Z" transform="translate(-49.831 -95.774)" fill="#030303"/><path d="M126.656,78.212a4.884,4.884,0,0,0,5.629,3.189,5.539,5.539,0,0,0,4.189-4.432c.226-2.445-.85-4.192-3.293-5.247a25.161,25.161,0,0,1,2.543-2.44,2.392,2.392,0,0,1,2.99.4c.924.9,1.832,1.824,2.748,2.734.112.112.221.224.335.327a1.544,1.544,0,0,0,1.744.463,1.63,1.63,0,0,0,.93-1.562,2.62,2.62,0,0,1,1.843-2.371,3.118,3.118,0,0,1,3.573,2.257,2.533,2.533,0,0,1-2.371,3.113,2.545,2.545,0,0,0-.739.15,1.4,1.4,0,0,0-.466,2.442c.94.995,1.892,1.987,2.906,2.906a2.492,2.492,0,0,1-.011,3.941c-.968.853-1.845,1.81-2.75,2.729a1.774,1.774,0,0,0-.638,1.494,1.451,1.451,0,0,0,1.475,1.238,2.748,2.748,0,0,1,2.592,1.9,3.058,3.058,0,0,1-2.023,3.489,2.557,2.557,0,0,1-3.388-2.325,1.525,1.525,0,0,0-2.718-1.107c-1.019,1-2.023,2.02-3.037,3.026a2.29,2.29,0,0,1-3.454,0c-.962-.949-1.911-1.911-2.87-2.859a2.118,2.118,0,0,0-1.18-.709,1.449,1.449,0,0,0-1.679,1.486,2.586,2.586,0,0,1-1.96,2.51,2.964,2.964,0,0,1-3.454-2.339,2.574,2.574,0,0,1,2.546-3.064,1.532,1.532,0,0,0,1.466-.949,1.477,1.477,0,0,0-.472-1.682c-1.009-1.041-2.044-2.053-3.066-3.077a2.3,2.3,0,0,1-.011-3.541C125.26,79.615,125.936,78.937,126.656,78.212Z" transform="translate(-92.417 -53.261)" fill="#030303"/><path d="M31.352,86.045c-1.477-2.592-3.282-3.691-5.332-3.282a5.591,5.591,0,0,0-4.484,4.361,4.833,4.833,0,0,0,3.23,5.383c-.744.76-1.442,1.578-2.243,2.273a2.318,2.318,0,0,1-3.176-.185c-1-.989-2-1.99-3-2.985a1.949,1.949,0,0,0-1.145-.654c-.981-.106-1.616.512-1.679,1.625a2.67,2.67,0,0,1-1.832,2.371A3.073,3.073,0,0,1,8.12,92.726a2.548,2.548,0,0,1,2.448-3.173,1.6,1.6,0,0,0,1.551-1.006,1.572,1.572,0,0,0-.567-1.715c-.959-1.006-1.96-1.971-2.944-2.955a2.311,2.311,0,0,1,0-3.546c.989-1,2-1.993,2.987-2.993A1.548,1.548,0,0,0,12.08,75.6a1.635,1.635,0,0,0-1.491-.957A2.63,2.63,0,0,1,8.035,72.5a3.1,3.1,0,0,1,1.529-2.925,2.557,2.557,0,0,1,3.958,2.115,1.617,1.617,0,0,0,.919,1.51,1.459,1.459,0,0,0,1.7-.42c1.014-.979,2-1.984,3-2.977a2.387,2.387,0,0,1,3.7-.011c.97.968,1.933,1.946,2.914,2.9a1.61,1.61,0,0,0,1.565.575,1.492,1.492,0,0,0,1.139-1.507,2.538,2.538,0,0,1,1.753-2.426,2.668,2.668,0,0,1,2.865.8,2.587,2.587,0,0,1,.679,2.838,2.53,2.53,0,0,1-2.322,1.665,1.648,1.648,0,0,0-1.575.992,1.509,1.509,0,0,0,.474,1.685c1,1.049,2.039,2.058,3.058,3.088a2.314,2.314,0,0,1-.019,3.584C32.7,84.671,32.033,85.353,31.352,86.045Z" transform="translate(-7.779 -53.267)" fill="#030303"/><path d="M75.148,34.414c2.363-.989,3.565-2.761,3.328-5.062a5.338,5.338,0,0,0-4.1-4.626c-2.352-.6-4.045.376-5.686,3.129-.739-.72-1.507-1.417-2.213-2.175a2.337,2.337,0,0,1,.2-3.3c.987-1.006,1.99-2,2.987-2.993a1.818,1.818,0,0,0,.591-1.041,1.389,1.389,0,0,0-1.278-1.627,3.553,3.553,0,0,1-1.9-.651,2.7,2.7,0,0,1,.333-4.277c1.875-1.36,4-.363,4.252,2.014a1.561,1.561,0,0,0,.984,1.453,1.534,1.534,0,0,0,1.641-.488c1-.992,2-1.99,3-2.982a2.342,2.342,0,0,1,3.636.014q1.394,1.39,2.786,2.78a2.213,2.213,0,0,0,1.238.725c.87.125,1.54-.521,1.655-1.562a2.637,2.637,0,0,1,2.271-2.551,3.07,3.07,0,0,1,3.137,2.271,2.5,2.5,0,0,1-2.126,3.143c-.232.035-.463.076-.692.112A1.393,1.393,0,0,0,88.1,18.763a2.8,2.8,0,0,0,.589.79c.97.968,1.946,1.933,2.908,2.906a2.293,2.293,0,0,1,.033,3.293c-.984,1.011-2,1.984-2.985,3a1.711,1.711,0,0,0-.662,1.747,1.51,1.51,0,0,0,1.559,1.088,2.6,2.6,0,0,1,2.467,2.08,2.949,2.949,0,0,1-1.9,3.151A2.524,2.524,0,0,1,86.6,34.6a1.539,1.539,0,0,0-2.783-1.079Q82.35,35,80.866,36.464a2.348,2.348,0,0,1-3.6.016C76.57,35.8,75.87,35.118,75.148,34.414Z" transform="translate(-50.181 -10.929)" fill="#030303"/></g></svg>