<svg xmlns="http://www.w3.org/2000/svg" width="32.55" height="32.55" viewBox="0 0 52.55 52.55"><path d="M66.9,60.525c3.152.007,6.3.062,9.453,0a3.522,3.522,0,0,0,3.333-3.049,16.773,16.773,0,0,0,.067-2.5c.017-1.249.007-2.5,0-3.745a3.735,3.735,0,0,0-3.087-3.787,1.853,1.853,0,0,0-.372-.012q-6.937,0-13.877,0c-.3,0-.419-.025-.4-.385.037-.949,0-1.9.025-2.846,0-.191-.253-.432.017-.566a1.454,1.454,0,0,1,.59-.017c4.538,0,9.076-.035,13.614,0a7.06,7.06,0,0,1,4.429,1.612A7.327,7.327,0,0,1,83.3,49.321a6.245,6.245,0,0,1,.2,1.532c0,2.021.02,4.045-.007,6.066a7.186,7.186,0,0,1-3.454,6.252,7.382,7.382,0,0,1-4.149,1.155q-3.046,0-6.091,0-4.259,0-8.518-.01c-2.115,0-4.231.015-6.343.017-1.1,0-2.192-.017-3.286-.012A3.669,3.669,0,0,0,48.1,67.391a6.034,6.034,0,0,0-.062.814c0,1.81,0,3.62,0,5.431a3.715,3.715,0,0,0,2.946,3.742,3.451,3.451,0,0,0,.818.035c1.619,0,3.239,0,4.858,0,.27,0,.365.067.36.355-.017,1.048-.012,2.1,0,3.146,0,.231-.04.32-.3.32-1.758-.012-3.519.05-5.272-.02a7.249,7.249,0,0,1-5.205-2.4,7.761,7.761,0,0,1-1.852-3.645,4.189,4.189,0,0,1-.092-.882c-.007-2.1.01-4.194-.007-6.292a7.215,7.215,0,0,1,1.049-3.849,7.348,7.348,0,0,1,4.746-3.429,6.614,6.614,0,0,1,1.617-.171q6.7.011,13.389,0c.126,0,.273.065.387-.055l.134-.015a3.029,3.029,0,0,0,1.118.05C66.786,60.523,66.841,60.523,66.9,60.525Z" transform="translate(-34.392 -35.767)" fill="#0e0e0e"/><path d="M13.517,21.9c0-3.154,0-6.309-.007-9.463,0-.33.06-.444.429-.444C18,12,22.068,12,26.13,11.995c.479,0,.479,0,.479.484q0,9.444.007,18.889c0,.315-.077.379-.387.377q-6.208-.015-12.417.01c-.32,0-.3-.144-.3-.357Q13.522,26.647,13.517,21.9Zm6.358-.337c-.846,0-1.694.012-2.539,0-.308-.007-.5.134-.511.4s.184.431.484.431q2.6,0,5.193,0c.3,0,.5-.166.5-.427s-.2-.409-.511-.4C21.619,21.572,20.749,21.562,19.876,21.56Zm.02-3.068c.846,0,1.691-.007,2.537,0,.312,0,.543-.144.56-.417.02-.29-.213-.434-.523-.431q-2.555.011-5.111,0c-.305,0-.546.119-.533.422s.263.424.57.422C18.229,18.487,19.062,18.492,19.9,18.492Zm-.02,7.782c.87,0,1.741-.007,2.611,0,.308,0,.5-.139.5-.414s-.2-.419-.5-.417c-1.716.007-3.432,0-5.148,0-.327,0-.573.191-.528.431a.453.453,0,0,0,.523.4C18.185,26.262,19.03,26.274,19.876,26.274Z" transform="translate(-13.51 -11.99)" fill="#0d0d0d"/><path d="M125.437,158.98c0-2.966,0-5.932-.007-8.9,0-.221.042-.273.255-.27q3.329.011,6.656,0c.243,0,.283.079.283.3q-.007,8.86,0,17.721c0,.25-.079.308-.327.305-2.192-.02-4.387-.037-6.579-.015-.325,0-.283-.124-.283-.315Q125.439,163.392,125.437,158.98Z" transform="translate(-96.217 -115.583)" fill="#0c0c0c"/><path d="M69.63,31.813c0-2.093.007-4.186-.007-6.281,0-.283.069-.345.347-.342,1.582.015,3.164.007,4.746.01a5.493,5.493,0,0,1,5.364,4.377,9.832,9.832,0,0,1-.179,5.091,5.63,5.63,0,0,1-5.426,3.779q-2.243-.022-4.486,0c-.28,0-.372-.052-.37-.357C69.635,36,69.63,33.906,69.63,31.813Z" transform="translate(-54.909 -21.916)" fill="#0b0b0b"/><path d="M182.92,177.993c-1.508,0-3.013,0-4.521,0-.156,0-.181-.074-.181-.2,0-1.1.007-2.195,0-3.291,0-.243.136-.213.29-.211q2.224,0,4.451,0a.761.761,0,0,0,.394-.055c.174-.094.283-.206.253-.4a.393.393,0,0,0-.36-.362,6.066,6.066,0,0,0-.672-.02c-1.3,0-2.594-.012-3.891.007-.374,0-.484-.094-.474-.479.03-1.071.02-2.145,0-3.216,0-.273.082-.337.342-.337q4.4.011,8.791,0c.241,0,.31.057.308.305q-.015,3.965,0,7.931c0,.278-.064.345-.355.342C185.839,177.981,184.381,177.993,182.92,177.993Z" transform="translate(-135.101 -130.338)" fill="#0d0c0d"/><path d="M104.794,168.345c0,1.929,0,3.861.007,5.79,0,.151.012.241-.164.231a12.788,12.788,0,0,1-2.7-.129,3.686,3.686,0,0,1-2.706-2.76,4.212,4.212,0,0,1-.089-1.18c-.007-1.5,0-2.991.02-4.486a3.664,3.664,0,0,1,2.346-3.263,3.243,3.243,0,0,1,1.148-.228c.62-.007,1.24-.02,1.857-.052.255-.012.317.094.317.32,0,1.919,0,3.839,0,5.756A.189.189,0,0,1,104.794,168.345Z" transform="translate(-76.827 -124.95)" fill="#121212"/><path d="M157.725,168.326c0-1.892,0-3.787,0-5.679,0-.265.037-.325.345-.36a3.507,3.507,0,0,1,2.47.714c.4.278.836.5,1.257.746a.343.343,0,0,1,.2.342q-.011,4.241,0,8.481a.348.348,0,0,1-.216.34c-.769.446-1.535.893-2.3,1.354a1.68,1.68,0,0,1-.94.1c-.816.015-.816,0-.816-.808Z" transform="translate(-120.198 -124.951)" fill="#0b0b0c"/><path d="M131.562,109.944l-.166,0a.633.633,0,0,0-.754-.414c-.131.022-.208.184-.362.139l0,0c.089-.337.369-.327.62-.305A.671.671,0,0,1,131.562,109.944Z" transform="translate(-99.985 -85.185)" fill="#babcbf"/><path d="M129.8,108.493c-.1.082-.184.2-.33.184a.106.106,0,0,1-.03-.092c.082-.159.236-.069.357-.094Z" transform="translate(-99.386 -84.535)" fill="#f4f5f5"/><path d="M128.391,110.235c.064-.01.087.03.087.082s-.007.134-.089.129a.143.143,0,0,1-.1-.087C128.264,110.282,128.331,110.258,128.391,110.235Z" transform="translate(-98.534 -85.848)" fill="#f4f5f5"/><path d="M129.839,110.828l-.134.015c-.01-.112-.04-.236.139-.241l0,0C129.9,110.677,130.07,110.754,129.839,110.828Z" transform="translate(-99.581 -86.123)" fill="#babcbf"/><path d="M135.851,110.368c-.1-.042-.107-.124-.084-.208a.047.047,0,0,1,.084-.012A.148.148,0,0,1,135.851,110.368Z" transform="translate(-104.072 -85.767)" fill="#c2c4c6"/><path d="M134.79,108.76c.109,0,.191.042.208.161a.067.067,0,0,1-.035.05c-.092.01-.1-.1-.166-.124C134.795,108.817,134.792,108.787,134.79,108.76Z" transform="translate(-103.355 -84.74)" fill="#c2c4c6"/><path d="M134.455,108.626l.007.087c-.057-.01-.136-.01-.114-.092C134.366,108.557,134.42,108.582,134.455,108.626Z" transform="translate(-103.027 -84.606)" fill="#f4f5f5"/><path d="M130.89,108.207c.01-.04,0-.1.06-.1a.06.06,0,0,1,.042.042c0,.064-.057.05-.1.057A.009.009,0,0,1,130.89,108.207Z" transform="translate(-100.468 -84.251)" fill="#f4f5f5"/><path d="M133.532,108.28c.007,0,.017.007.025.012l-.035.027a.068.068,0,0,1-.012-.022C133.512,108.287,133.525,108.285,133.532,108.28Z" transform="translate(-102.411 -84.379)" fill="#f4f5f5"/><path d="M130.27,110.366c.231-.074.064-.151,0-.228.156.045.231-.117.362-.139a.633.633,0,0,1,.754.414A2.918,2.918,0,0,1,130.27,110.366Z" transform="translate(-99.982 -85.661)" fill="#eeeeef"/></svg>