<svg xmlns="http://www.w3.org/2000/svg" width="20.369" height="28.788" viewBox="0 0 60.369 38.788"><path d="M32.595,44.746l-.472.073v8.013l.463.073,1.263.2.33.051V44.5l-.33.051Zm-4.344,5.878,3.1,1.1V45.921l-3.1,1.1Zm19.74,6.925-1.118,5.519h5.121l-1.562-5.282ZM46.3,74.241v6.937H67.589V74.241ZM26.723,49.728h.754V47.92H24.918ZM51,57.066l.028,0L52.809,63.1,54.5,68.818l-2.519,4.635H66.2l-.918-2.864H61.522l-.11-.376-.116-.4H65.03l-.8-2.483H60.571l-.11-.376-.119-.4h3.641l-.8-2.483H59.613l-.11-.376-.119-.4h3.55l-.8-2.483h-3.48l-.226-.774H61.89l-.881-2.748,6.42-4.177V43.9L63.494,42.39H37.357l-2.124,1.24-.288.167V53.73l.22.28,1.285,1.63,11.637,1.138Zm.311-10.594.011-.023h.89l-2.816,5.022H48.5ZM40.565,51.448l-.011.023h-.89l2.816-5.022h.89Zm4.42,0-.011.023h-.89L46.9,46.449h.89ZM17.862,47.92l1.808,1.808H22.1L20.294,47.92Zm3.528,0L23.2,49.728H25.63L23.822,47.92Zm-14.17,0,1.808,1.808h2.432L9.652,47.92Zm3.587,0,1.808,1.808h2.432L13.239,47.92Zm3.528,0,1.808,1.808h2.432L16.767,47.92Z" transform="translate(-7.22 -42.39)"/></svg>