<svg xmlns="http://www.w3.org/2000/svg" width="28.9" height="23.192" viewBox="0 0 58.9 53.192"><path d="M47.856,64.074c-2.217,0-4.343.03-6.44,0-.509,0-.689.09-.659.629.06.989,0,.989.988.989h6.89a1.177,1.177,0,0,1,.929.359,9.58,9.58,0,0,0,5.811,2.516c.359.03.509.09.509.509-.03,1.5,0,2.965-.03,4.463a2.879,2.879,0,0,1-2.726,2.936,4.015,4.015,0,0,1-.6.03h-30.4A2.987,2.987,0,0,1,18.98,74.5a3.4,3.4,0,0,1-.18-1.228V30.135A3.013,3.013,0,0,1,22.065,26.9H44.351c.509,0,.6.15.6.629-.03,2.067,0,4.1,0,6.171a3.117,3.117,0,0,0,3.385,3.385H55.4c.389,0,.479.12.479.479V47.658c0,.33-.06.479-.449.509a9.611,9.611,0,0,0-6.171,2.816,1.2,1.2,0,0,1-.929.389c-2.336-.03-4.673,0-7.009-.03-.509,0-.629.15-.6.629.03.959,0,.959.959.959h5.871c.12.18-.03.27-.09.359a9.856,9.856,0,0,0-1.228,3.744c-.03.419-.21.449-.539.449H41.176c-.329,0-.419.06-.449.419,0,1.168-.03,1.168,1.108,1.168H45.7c.329,0,.449.03.509.419A10.233,10.233,0,0,0,47.856,64.074ZM22.9,58.083v6.53c0,.809.24,1.078,1.048,1.078H36.024c.779,0,1.048-.3,1.048-1.048V51.523c0-.779-.24-1.018-1.018-1.018H23.922c-.779,0-.988.21-.988.959C22.9,53.679,22.9,55.866,22.9,58.083ZM37.372,70.244h-12.7c-1.018,0-.988,0-1.018,1.018-.03.479.12.569.569.569h25.7c1.2,0,1.2,0,1.138-1.2,0-.329-.12-.389-.419-.389-.6.03-1.228,0-1.827,0Zm0-28.966H49.893c1.168,0,1.138,0,1.138-1.138,0-.389-.15-.449-.479-.449-.779.03-1.588,0-2.366,0H24.611c-.959,0-.929,0-.988.959-.03.539.15.629.659.629C28.655,41.248,33,41.278,37.372,41.278Zm-.06,2.456H24.072c-.3,0-.449.06-.419.389a1.289,1.289,0,0,1,0,.479c-.12.6.15.749.719.719,8.507-.03,17.014,0,25.551,0,1.2,0,1.168,0,1.108-1.228,0-.3-.12-.359-.389-.359-.6.03-1.228,0-1.827,0Z" transform="translate(-18.8 -26.87)" fill="#020202"/><path d="M132.419,111.412a8.961,8.961,0,0,1-1.348,4.883c-.27.419-.329.569.12.929a31.289,31.289,0,0,1,2.456,2.426,5.538,5.538,0,0,1,.419.419,1.659,1.659,0,0,0,1.8.749,2.611,2.611,0,0,1,2.247.869c2.157,2.157,4.283,4.343,6.41,6.53a2.989,2.989,0,0,1-.15,4.313,2.878,2.878,0,0,1-4.134-.09l-6.47-6.56a2.805,2.805,0,0,1-.749-2.846.7.7,0,0,0-.21-.779c-1.168-1.228-2.456-2.336-3.5-3.684-.18-.24-.3,0-.419.09a8.2,8.2,0,0,1-5.212,1.647,8.447,8.447,0,0,1-6.021-2.846,8.689,8.689,0,0,1,4.044-14.168,8.576,8.576,0,0,1,10.6,6.86A7.818,7.818,0,0,1,132.419,111.412Z" transform="translate(-86.469 -80.17)" fill="#020202"/><path d="M109.8,26.8c3.295,3.055,6.47,6.021,9.675,8.986-.18.15-.329.09-.479.09h-6.949A2,2,0,0,1,109.8,33.6Z" transform="translate(-82.541 -26.8)" fill="#030303"/><path d="M37.7,116.861v-5.452c0-.419.12-.509.539-.509q4.987.045,9.975,0c.389,0,.539.09.539.509-.03,3.654-.03,7.309,0,10.993,0,.389-.06.539-.509.539-3.355-.03-6.68-.03-10.035,0-.449,0-.509-.15-.479-.539C37.73,120.545,37.7,118.718,37.7,116.861Z" transform="translate(-32.039 -85.708)" fill="#010101"/></svg>