<svg xmlns="http://www.w3.org/2000/svg" width="23.214" height="31.489" viewBox="0 0 53.214 61.489"><path d="M90.333,80.153V55.458c0-.626.132-.758.758-.758,10.122.033,20.211,0,30.332,0a2.964,2.964,0,0,1,3.3,3.264v44.345a3.144,3.144,0,0,1-1.649,3.066,3.654,3.654,0,0,1-1.78.33H91.025c-.593,0-.725-.2-.725-.725C90.366,96.7,90.333,88.428,90.333,80.153Zm17.177-1.385h10.913c1.319,0,1.879-.56,1.879-1.846V60.964c0-1.286-.593-1.846-1.879-1.846H96.663c-1.286,0-1.879.56-1.879,1.846V76.922c0,1.253.56,1.813,1.813,1.813C100.224,78.768,103.851,78.768,107.51,78.768Zm.033,22.519H118.16a3.938,3.938,0,0,0,1.088-.1,1.347,1.347,0,0,0,1.055-1.319c.033-1.121-.593-1.714-1.912-1.714H96.729a2.458,2.458,0,0,0-.857.132A1.431,1.431,0,0,0,94.817,99.9,1.346,1.346,0,0,0,96,101.221a4.476,4.476,0,0,0,.956.1C100.455,101.287,103.983,101.287,107.543,101.287Zm0-15.034h11.045c1.088,0,1.714-.56,1.681-1.55a1.52,1.52,0,0,0-1.714-1.55H96.432a1.494,1.494,0,0,0-1.681,1.55c0,.956.626,1.517,1.714,1.517C100.158,86.252,103.851,86.252,107.543,86.252Zm-.066,7.451h11.342a1.385,1.385,0,0,0,1.484-1.418c.033-1.022-.626-1.648-1.78-1.648H96.4a1.5,1.5,0,0,0-1.616,1.648c.033.923.593,1.418,1.616,1.418Z" transform="translate(-71.507 -44.216)" fill="#010101"/><path d="M63.2,23c-1.879,1.055-3.726,2.11-5.6,3.165l-7.814,4.352a1.59,1.59,0,0,0-.824,1.517V73.113c0,.626-.132.758-.758.758-3.923-.033-7.88-.033-11.8,0A3.046,3.046,0,0,1,33.3,70.9c.033-2.11,0-4.253,0-6.363V26.3a3.149,3.149,0,0,1,1.352-2.9,3.582,3.582,0,0,1,2.011-.495H63.1Q63.2,22.949,63.2,23Z" transform="translate(-33.3 -22.9)" fill="#010101"/><path d="M115.345,26.3v6c0,.495-.363.3-.56.3H104.333c0-.033-.033-.066-.033-.1C107.96,30.454,111.619,28.41,115.345,26.3Z" transform="translate(-80.891 -25.179)" fill="#010101"/><path d="M122.826,77.5h9c.495,0,.692.066.692.659-.033,4.088-.033,8.144,0,12.232,0,.528-.132.626-.659.626q-9.05-.049-18.1,0c-.593,0-.659-.2-.659-.692q.049-6.083,0-12.166c0-.56.165-.659.692-.659Z" transform="translate(-86.79 -59.498)"/></svg>