<svg xmlns="http://www.w3.org/2000/svg" width="24.854" height="24.854" viewBox="0 0 44.854 44.854"><path d="M33.816,76.214h-19.9c-1.641,0-2.523-1.05-2.523-3V34.361c0-1.951.882-3,2.523-3h39.76c1.707,0,2.571,1.029,2.571,3.058V73.156c0,2.027-.867,3.058-2.571,3.058Zm.915-27.793c0-2.318,0-4.636,0-6.954,0-.5.181-1.163-.071-1.475-.276-.339-.84-.053-1.272-.118-.4-.058-.5.118-.494.585Q32.915,48,32.9,55.554c0,.449.117,1.026-.071,1.313-.2.31-.71.063-1.085.105a6.126,6.126,0,0,0-.659.074,2.511,2.511,0,0,0-1.738,2.315c-.026.47-.035.942-.018,1.412a2.432,2.432,0,0,0,2.283,2.638,7.95,7.95,0,0,0,.9-.005c.313-.031.4.1.4.47-.022,1.11.009,2.224-.015,3.334-.009.41.108.52.43.494a7.575,7.575,0,0,1,1.092,0c.251.016.329-.092.324-.386-.013-.811-.009-1.62,0-2.431,0-.47-.126-1.076.071-1.368.21-.315.743-.063,1.131-.1.046-.005.095,0,.143,0A2.415,2.415,0,0,0,38.3,60.875c.022-.47.02-.942,0-1.412A2.475,2.475,0,0,0,36.4,57.019a4.72,4.72,0,0,0-1.231-.037c-.362.026-.445-.113-.443-.533C34.74,53.771,34.731,51.1,34.731,48.421ZM20.326,59.14q0,3.477,0,6.954c0,.507-.148,1.173.064,1.481.247.36.834.05,1.264.129.454.084.5-.165.5-.625q-.02-7.49,0-14.979c0-.483-.183-1.124.088-1.4.229-.239.752-.071,1.145-.089a3.062,3.062,0,0,0,.377-.039,2.4,2.4,0,0,0,1.954-2.2,11.087,11.087,0,0,0,.029-1.58,2.47,2.47,0,0,0-2.159-2.615,8.641,8.641,0,0,0-1.043,0c-.311.029-.408-.087-.4-.465.02-1.129,0-2.26.013-3.392,0-.341-.066-.47-.366-.444a6.59,6.59,0,0,1-1.092,0c-.287-.021-.386.076-.375.436.024.79.011,1.583.007,2.373,0,.47.137,1.089-.062,1.368-.232.326-.77.1-1.173.108a2.418,2.418,0,0,0-2.333,2.415,6.472,6.472,0,0,0,.04,1.856A2.384,2.384,0,0,0,18.7,50.548a4.986,4.986,0,0,0,1.136.045c.388-.034.5.089.5.575C20.313,53.824,20.326,56.483,20.326,59.14Zm26.98,2.14c0-1.7,0-3.392,0-5.09,0-.412-.112-.95.062-1.2.207-.3.679-.066,1.034-.105.126-.013.254-.018.377-.034a2.465,2.465,0,0,0,2.1-2.465,6.852,6.852,0,0,0-.049-1.8,2.376,2.376,0,0,0-2.049-2.126,7.581,7.581,0,0,0-1.092-.013c-.313.024-.4-.1-.395-.473.015-2.15.009-4.3.007-6.448,0-.525.148-1.223-.075-1.528-.26-.354-.864-.055-1.314-.123-.368-.055-.441.113-.439.528.018,2.489,0,4.977.02,7.463,0,.488-.119.617-.505.575a5.5,5.5,0,0,0-1,.011A2.323,2.323,0,0,0,41.969,50.4a7.31,7.31,0,0,0-.077,1.741,2.473,2.473,0,0,0,2.038,2.688,5.406,5.406,0,0,0,1.089.039c.37-.032.479.1.476.554-.018,3.544-.011,7.088-.007,10.632,0,.525-.148,1.229.077,1.525.26.344.867.05,1.317.116.377.055.437-.137.432-.538C47.3,65.2,47.306,63.241,47.306,61.279Z" transform="translate(-11.39 -31.36)"/></svg>