<svg xmlns="http://www.w3.org/2000/svg" width="29.732" height="29.732" viewBox="0 0 49.732 49.732"><path d="M58.349,33.391a12.08,12.08,0,0,1-2.483,2.366c-1.424,1.275-2.894,2.5-4.343,3.742q-2.139,1.836-4.273,3.677c-.532.459-1.05.937-1.6,1.369a.543.543,0,0,0-.2.642l3.872,15.73a1.554,1.554,0,0,1-.49,1.731,1.469,1.469,0,0,1-1.785,0c-2.182-1.434-4.373-2.854-6.558-4.283q-3.319-2.169-6.632-4.351a.622.622,0,0,0-.8-.029q-6.508,4.292-13.034,8.557a1.66,1.66,0,0,1-1.662.285,1.5,1.5,0,0,1-.842-1.794q1.964-7.932,3.921-15.866a.538.538,0,0,0-.189-.625c-2.313-1.973-4.6-3.984-6.894-5.973q-2.52-2.184-5.057-4.346a1.655,1.655,0,0,1-.6-1.8,1.469,1.469,0,0,1,1.519-1.038c2.17-.152,4.338-.333,6.509-.485,1.256-.089,2.513-.13,3.769-.217,1.8-.123,3.6-.27,5.4-.389.229-.014.254-.167.306-.3q2.2-5.73,4.39-11.462c.478-1.248.971-2.489,1.445-3.738a1.461,1.461,0,0,1,1.419-1.058,1.485,1.485,0,0,1,1.407,1.082c1.928,5.025,3.874,10.042,5.8,15.069.107.282.21.394.518.415,2.509.186,5.02.336,7.531.5,2.012.13,4.019.3,6.033.4.789.039,1.575.118,2.359.2a1.723,1.723,0,0,1,1.249,1Z" transform="translate(-8.616 -13.73)"/><path d="M162.932,50.442a1.465,1.465,0,0,1-1.345,1.406,1.382,1.382,0,1,1,1.345-1.406Z" transform="translate(-124.628 -40.498)" fill="#020202"/><path d="M60.2,50.442a1.453,1.453,0,0,1-1.378,1.378A1.385,1.385,0,1,1,60.2,50.442Z" transform="translate(-45.984 -40.473)" fill="#020202"/><path d="M28.469,148.183a1.34,1.34,0,0,1-1.352,1.354,1.376,1.376,0,0,1,.006-2.753A1.336,1.336,0,0,1,28.469,148.183Z" transform="translate(-22.043 -114.477)" fill="#020202"/><path d="M192.079,148.137a1.346,1.346,0,0,1,1.38-1.367,1.377,1.377,0,0,1-.013,2.753A1.356,1.356,0,0,1,192.079,148.137Z" transform="translate(-148.756 -114.468)" fill="#020202"/><path d="M108.97,208.487a1.35,1.35,0,1,1,1.371,1.391A1.412,1.412,0,0,1,108.97,208.487Z" transform="translate(-85.443 -160.146)" fill="#020202"/></svg>