<svg xmlns="http://www.w3.org/2000/svg" width="24.233" height="27.091" viewBox="0 0 54.233 57.091"><path d="M143.6,62.886v.8q0,15.84.027,31.71a1.056,1.056,0,0,1-.754,1.2q-12.234,5.2-24.469,10.468c-.808.338-.808.338-.808-.645V73.323c0-.522.081-.829.565-1.013q12.436-4.651,24.846-9.3A1.223,1.223,0,0,1,143.6,62.886Z" transform="translate(-89.397 -50.172)"/><path d="M41.73,89.3c0,5.556,0,11.082.027,16.638,0,.767-.135.86-.754.583q-12.4-5.341-24.792-10.591a.811.811,0,0,1-.511-.89V62.683c0-.583.054-.767.619-.522,3.123,1.228,6.245,2.394,9.368,3.561.485.184.458.491.458.921V80.211a2.167,2.167,0,0,0,1.346,2.18,1.656,1.656,0,0,0,2.019-.8,2.748,2.748,0,0,0,.377-1.535V68.484c0-1.013.081-1.074.888-.767,3.446,1.32,6.891,2.64,10.337,3.929.485.184.592.46.592.982C41.7,78.154,41.73,83.71,41.73,89.3Z" transform="translate(-15.7 -49.6)"/><path d="M113.674,45.653c-8.641,3.254-17.174,6.477-25.707,9.67a.844.844,0,0,1-.673.031c-3.284-1.259-6.568-2.517-9.852-3.745a1.824,1.824,0,0,1-.242-.184c2.261-1.074,4.5-2.149,6.73-3.223,5.411-2.579,10.794-5.126,16.2-7.7a1.735,1.735,0,0,1,1.507-.092c3.849,1.658,7.672,3.315,11.521,4.973A2.178,2.178,0,0,0,113.674,45.653Z" transform="translate(-59.872 -34.504)"/><path d="M52.74,25.048c-4.092,1.965-8.183,3.9-12.275,5.863-3.769,1.78-7.51,3.561-11.252,5.372a.8.8,0,0,1-.7.031C25.2,35.056,21.892,33.766,18.5,32.477c3.849-1.658,7.618-3.285,11.386-4.881,4.63-2,9.206-3.96,13.809-5.925a1.732,1.732,0,0,1,1.507-.031c2.4,1.044,4.765,2.087,7.16,3.1C52.525,24.8,52.659,24.833,52.74,25.048Z" transform="translate(-17.746 -21.482)"/><path d="M58.4,53.348c0-2.241.027-4.482,0-6.692a1.317,1.317,0,0,1,.808-1.381q12.517-5.894,25.007-11.788c.727-.338,1.131-.215,1.373.43.242.583.027,1.013-.754,1.381C77.27,38.89,69.679,42.451,62.115,46.042c-.646.307-1.534.4-1.857.952s-.108,1.535-.108,2.333V60.071c0,.829-.35,1.351-.888,1.351S58.4,60.9,58.4,60.04V53.348Z" transform="translate(-46.566 -29.675)"/></svg>