<svg xmlns="http://www.w3.org/2000/svg" width="28.845" height="20.599" viewBox="0 0 48.845 40.599"><path d="M51.909,81.371c-7.778,0-15.583-.028-23.361.028-.855,0-1.048-.193-1.048-1.048q.041-17.707.028-35.441a3.775,3.775,0,0,1,3.779-4.082,7.751,7.751,0,0,1,.8-.028h40.13c2.786,0,4.082,1.3,4.082,4.11q0,17.707.028,35.441c0,.883-.221,1.048-1.048,1.048C67.492,81.344,59.687,81.371,51.909,81.371Zm0-30.559c-7.171,0-14.37.028-21.54-.028-.855,0-1.048.193-1.048,1.048.028,8.881.028,17.79,0,26.67,0,.855.193,1.048,1.048,1.048q21.554-.041,43.081,0c.855,0,1.048-.193,1.048-1.048-.028-8.881-.028-17.79,0-26.67,0-.855-.193-1.048-1.048-1.048C66.278,50.839,59.08,50.812,51.909,50.812Zm-18.948-2.73a1.834,1.834,0,1,0-1.82-1.875A1.766,1.766,0,0,0,32.961,48.081Zm7.309,0a1.744,1.744,0,0,0,1.82-1.848,1.766,1.766,0,0,0-1.765-1.793,1.731,1.731,0,0,0-1.875,1.793A1.76,1.76,0,0,0,40.27,48.081Zm7.309,0a1.821,1.821,0,1,0-1.82-1.848A1.744,1.744,0,0,0,47.579,48.081Z" transform="translate(-27.5 -40.8)"/><path d="M64.207,100.956c0,3.255-.028,6.537.028,9.791,0,.745-.193.938-.938.938q-7.53-.041-15.059,0c-.745,0-.938-.193-.938-.938q.041-9.8,0-19.61c0-.745.193-.938.938-.938q7.53.041,15.059,0c.745,0,.938.193.938.938C64.179,94.42,64.207,97.674,64.207,100.956Z" transform="translate(-41.839 -76.575)"/><path d="M124.588,100.333c-2.9,0-5.764-.028-8.66.028-.634,0-.827-.165-.827-.827q.041-4.22,0-8.44c0-.634.165-.827.827-.8q8.771.041,17.541,0c.634,0,.827.165.827.827q-.041,4.22,0,8.44c0,.634-.165.827-.827.8C130.518,100.305,127.539,100.333,124.588,100.333Z" transform="translate(-90.939 -76.641)"/><path d="M115.192,138.1c0-1.379.028-2.73,0-4.11-.028-.552.165-.69.717-.69q3.641.041,7.281,0c.552,0,.69.165.69.717-.028,2.73-.028,5.461,0,8.219,0,.552-.165.69-.717.69q-3.641-.041-7.281,0c-.552,0-.717-.165-.69-.717C115.22,140.83,115.192,139.45,115.192,138.1Z" transform="translate(-91.004 -107.788)"/><path d="M154.89,138.066c0-1.324.028-2.648,0-4,0-.552.083-.8.717-.772,2.234.055,4.5.028,6.73,0,.552,0,.8.083.772.717-.028,2.7-.028,5.406,0,8.081,0,.552-.083.8-.717.772-2.234-.055-4.5-.055-6.73,0-.689.028-.8-.248-.772-.855C154.918,140.714,154.89,139.39,154.89,138.066Z" transform="translate(-119.752 -107.782)"/></svg>