<svg xmlns="http://www.w3.org/2000/svg" width="30.397" height="30.078" viewBox="0 0 60.397 60.078"><path d="M86.035,93.02c-1.1-.233-1.716-1.221-2.588-1.745-.552-.349-.843-1.134-1.861-.756-1.076.407-1.134,1.192-1.134,1.977-.116,3.954-.407,3.344-4.332,3.373a1.361,1.361,0,0,1-1.512-1.454c-.058-.785-.233-1.57-.233-2.355a1.491,1.491,0,0,0-1.047-1.512c-.814-.378-1.163.145-1.657.494a1.661,1.661,0,0,0-.233.2c-2.995,2.384-2.152,2.675-5.437-.611a1.266,1.266,0,0,1-.058-1.948c.582-.7,1.163-1.367,1.716-2.064a1.423,1.423,0,0,0-.96-2.442,7.307,7.307,0,0,0-.785-.116c-3.344-.407-3.838-1.047-3.286-4.42a1.463,1.463,0,0,1,1.512-1.308c.9-.087,1.8-.145,2.675-.291a1.4,1.4,0,0,0,.9-2.3,6.091,6.091,0,0,0-.407-.494c-2.413-3.024-2.733-2.3.436-5.466a1.41,1.41,0,0,1,2.21-.058c.64.552,1.279,1.076,1.948,1.6a1.423,1.423,0,0,0,2.442-.96,7.307,7.307,0,0,0,.116-.785c.407-3.315,1.1-3.809,4.449-3.257a1.491,1.491,0,0,1,1.308,1.541c.087.9.145,1.8.291,2.675a1.413,1.413,0,0,0,2.326.872,4.273,4.273,0,0,1,.378-.291c3.315-2.588,2.21-2.7,5.525.494a1.333,1.333,0,0,1,.087,2.064c-.523.611-.989,1.221-1.512,1.832-.407.494-.785.843-.436,1.657a1.568,1.568,0,0,0,1.57,1.018.218.218,0,0,1,.145.029c4.129.262,3.518.087,3.547,4.3A1.263,1.263,0,0,1,90.8,83.948c-.843.087-1.686.233-2.53.262a1.427,1.427,0,0,0-1.425.96c-.349.785,0,1.163.407,1.657.145.174.262.32.407.494,1.948,2.384,1.628,4.042-1.076,5.5C86.442,92.874,86.238,92.933,86.035,93.02ZM71.409,80.953a6,6,0,0,0,5.932,6.135,6.006,6.006,0,1,0-5.932-6.135Z" transform="translate(-47.233 -51.004)"/><path d="M26.429,32.331a15.8,15.8,0,0,1,.64-5.932,11.5,11.5,0,0,1,10.526-7.56h.785c1.018,0,2.21.32,2.966-.116.9-.523.233-1.832.349-2.762a1.885,1.885,0,0,1,2.879-1.57c2.646,1.512,5.292,3.111,7.851,4.74a1.774,1.774,0,0,1-.029,3.14q-3.795,2.442-7.763,4.623a1.9,1.9,0,0,1-2.966-1.628c-.058-.814.233-2.006-.2-2.413-.64-.582-1.8-.2-2.733-.2-5.525,0-8.549,2.995-8.549,8.49v3.954a5.3,5.3,0,0,1-.029.96A1.882,1.882,0,0,1,28.2,37.768a1.733,1.733,0,0,1-1.8-1.832C26.4,34.744,26.429,33.552,26.429,32.331Z" transform="translate(-21.676 -14.099)"/><path d="M28.515,139.53a17.46,17.46,0,0,1-5.5-.465,11.434,11.434,0,0,1-8.083-10.729,16.4,16.4,0,0,1,.029-2.675c.145-1.163-.349-1.483-1.425-1.338a7.35,7.35,0,0,1-1.6,0,1.838,1.838,0,0,1-1.512-2.791c1.512-2.646,3.111-5.263,4.769-7.822a1.916,1.916,0,0,1,3.228-.029q2.486,3.838,4.71,7.851a1.878,1.878,0,0,1-1.57,2.791c-.872.116-2.123-.407-2.559.2-.611.843-.2,2.123-.2,3.228,0,4.8,3.2,8,8.054,8.025h4.449a4.619,4.619,0,0,1,1.1.058,1.8,1.8,0,0,1,1.483,1.977,1.706,1.706,0,0,1-1.716,1.745C30.957,139.588,29.736,139.53,28.515,139.53Z" transform="translate(-10.154 -84.11)"/><path d="M135.98,145.264a19.267,19.267,0,0,1-.32,4.623,11.589,11.589,0,0,1-10.758,8.549h-1.1c-.96,0-2.123-.32-2.791.116-.756.494-.2,1.745-.291,2.646a1.89,1.89,0,0,1-2.966,1.6c-2.617-1.483-5.2-3.024-7.734-4.623a1.774,1.774,0,0,1-.058-3.14c2.588-1.657,5.2-3.228,7.88-4.71a1.891,1.891,0,0,1,2.879,1.6c.087.872-.436,2.123.233,2.53.756.436,1.948.174,2.937.174,5.147,0,8.287-3.111,8.287-8.258v-4.42a3.454,3.454,0,0,1,.174-1.221,1.769,1.769,0,0,1,2.006-1.192,1.691,1.691,0,0,1,1.6,1.686C136.009,142.385,135.98,143.548,135.98,145.264Z" transform="translate(-80.285 -103.044)"/><path d="M141.714,30.454a18.333,18.333,0,0,1,5.35.407,11.452,11.452,0,0,1,8.2,10.671v.96c.029.989-.291,2.21.174,2.908s1.774.174,2.7.262a1.8,1.8,0,0,1,1.6,2.7c-1.512,2.7-3.111,5.379-4.8,8a1.8,1.8,0,0,1-3.169-.058c-1.628-2.53-3.169-5.088-4.652-7.705a1.864,1.864,0,0,1,1.512-2.908c.872-.116,2.21.407,2.559-.2.465-.814.2-2.035.2-3.053,0-5.03-3.14-8.141-8.229-8.171h-4.3a3.6,3.6,0,0,1-1.25-.145,1.77,1.77,0,0,1-1.338-1.919,1.707,1.707,0,0,1,1.745-1.716C139.272,30.4,140.493,30.454,141.714,30.454Z" transform="translate(-99.598 -25.685)"/><path d="M103.351,109.856c.233.087.582.087.7.262.96,1.512,1.512.378,2.123-.32a12.146,12.146,0,0,1,1.163-1.279.984.984,0,0,1,1.425-.029.934.934,0,0,1,.174,1.4c-1.018,1.25-2.064,2.5-3.14,3.722a1,1,0,0,1-1.541.029,12.657,12.657,0,0,1-1.774-2.181C101.955,110.583,102.45,110.089,103.351,109.856Z" transform="translate(-75.482 -80.838)"/></svg>