<svg xmlns = "http://www.w3.org/2000/svg" 
    width = "53.884" height = "53.867" 
    viewBox = "0 0 53.884 53.867" > 
    <g transform="translate(0)">
<path d="M35.663,65.786A26.933,26.933,0,1,1,62.645,39.746,26.92,26.92,0,0,1,35.663,65.786Zm.01-2.795A24.137,24.137,0,1,0,11.573,38.8,24.109,24.109,0,0,0,35.674,62.992Z" transform="translate(-8.775 -11.92)" fill="#070707" /><path d="M65.045,75.122c0-4.783-.02-9.566.02-14.349a1.278,1.278,0,0,0-1.04-1.437c-2.863-.982-5.7-2.037-8.549-3.067-.689-.249-1.35-.552-1.521-1.371-.216-1.037.824-1.8,2.042-1.376,2.261.791,4.519,1.612,6.718,2.555a14.517,14.517,0,0,0,4.918.887A23.333,23.333,0,0,0,80,54.584a18.673,18.673,0,0,1,2.962-1.065c.783-.242,1.584-.206,1.882.725A1.388,1.388,0,0,1,83.8,56.1c-2.924,1.065-5.823,2.2-8.768,3.191a1.392,1.392,0,0,0-1.139,1.6c.033,9.271.02,18.539.015,27.81a7.636,7.636,0,0,1-.1,1.386,1.93,1.93,0,0,1-2.1,1.755A1.992,1.992,0,0,1,69.9,89.652c-.013-4.147-.005-8.3-.005-12.444v-2.54c0-.341.043-.725-.481-.679-.442.041-.346.4-.346.679q-.008,3.364-.005,6.731c0,2.667.023,5.335-.008,8-.023,1.884-1.365,2.922-2.848,2.261a2.072,2.072,0,0,1-1.17-2.182C65.055,84.688,65.045,79.905,65.045,75.122Z" transform="translate(-42.446 -42.847)" fill="#070707" /><path d="M71.922,135.025a12.11,12.11,0,0,0,.018,2.149c.826,4.516-1.442,8.04-3.654,11.58a1.989,1.989,0,0,1-2.66.712,1.736,1.736,0,0,1-.913-2.352c2.253-4.1,4.62-8.147,6.944-12.213C71.744,134.941,71.833,134.981,71.922,135.025Z" transform="translate(-50.343 -103.629)" fill="#070707" /><path d="M136.859,135.14l6.637,11.481a2.155,2.155,0,0,1,.086,2.388,1.928,1.928,0,0,1-1.988.824,1.864,1.864,0,0,1-1.47-1.068c-1.065-1.864-2.136-3.725-3.191-5.594a1.833,1.833,0,0,1-.275-.824c-.02-2.39-.013-4.783-.013-7.173C136.715,135.163,136.788,135.153,136.859,135.14Z" transform="translate(-104.13 -103.808)" fill="#070707" /><path d="M104.406,36.72a3.393,3.393,0,0,1,3.534,3.463,3.548,3.548,0,0,1-3.433,3.634,3.728,3.728,0,0,1-3.659-3.588A3.53,3.53,0,0,1,104.406,36.72Z" transform="translate(-77.436 -30.414)" fill="#070707" /><path d="M57.941,70.209q-3.341,0-6.682,0a1.455,1.455,0,0,1-1.546-.849,1.3,1.3,0,0,1,.267-1.411,1.5,1.5,0,0,1,1.841-.236c2.052.776,4.114,1.521,6.171,2.276C57.976,70.061,57.958,70.135,57.941,70.209Z" transform="translate(-39.227 -53.373)" fill="#070707" /><path d="M147.628,69.948c2.011-.72,4.03-1.421,6.031-2.169.679-.254,1.3-.384,1.859.2a1.2,1.2,0,0,1,.305,1.383c-.31.781-.946.885-1.648.893q-3.292.034-6.586.056Z" transform="translate(-112.292 -53.415)" fill="#070707" /></g></svg>