<svg xmlns="http://www.w3.org/2000/svg" xmlns:xlink="http://www.w3.org/1999/xlink" width="55" height="55" viewBox="0 0 55 55">
 
  <g id="Group_20" data-name="Group 20" transform="translate(0.211 0.008)" clip-path="url(#clip-path)">
    <path id="Path_1" data-name="Path 1" d="M20.762,5.191A15.572,15.572,0,1,0,36.334,20.762,15.59,15.59,0,0,0,20.762,5.191m0,27.683A12.111,12.111,0,1,1,32.874,20.762,12.125,12.125,0,0,1,20.762,32.874M16.954,12.805a1.732,1.732,0,0,1-.341,2.424,6.869,6.869,0,0,0-2.772,5.533,1.73,1.73,0,1,1-3.46,0,10.44,10.44,0,0,1,4.149-8.3,1.733,1.733,0,0,1,2.424.343M53.747,45.957,38.737,31.107a20.826,20.826,0,1,0-7.63,7.63L45.964,53.752a5.507,5.507,0,1,0,7.782-7.795M51.56,50.923a1.82,1.82,0,0,0-.161-.24L40.511,39.794l1.038-1.038,9.757,9.654a2.021,2.021,0,0,1,.254,2.512M3.46,20.762a17.3,17.3,0,1,1,17.3,17.3,17.322,17.322,0,0,1-17.3-17.3M36.742,34l2.346,2.322-2.767,2.767L34,36.742A20.953,20.953,0,0,0,36.742,34M22.492,12.111a1.73,1.73,0,1,1-1.73-1.73,1.731,1.731,0,0,1,1.73,1.73" transform="translate(-0.177 -0.008)"/>
  </g>
</svg>
